<svg xmlns="http://www.w3.org/2000/svg" xmlns:xlink="http://www.w3.org/1999/xlink" width="500" zoomAndPan="magnify" viewBox="0 0 375 374.999991" height="500" preserveAspectRatio="xMidYMid meet" version="1.0"><defs><g/></defs><g fill="#00ff41" fill-opacity="1"><g transform="translate(78.768342, 253.120105)"><g><path d="M 9.671875 0 L 9.671875 -121.34375 L 38.21875 -121.34375 L 38.21875 0 Z M 72.765625 -0.234375 C 72.765625 -0.234375 73.492188 -0.882812 74.953125 -2.1875 C 76.410156 -3.488281 78.097656 -6.171875 80.015625 -10.234375 C 81.929688 -14.304688 83.617188 -20.375 85.078125 -28.4375 C 86.535156 -36.5 87.265625 -47.28125 87.265625 -60.78125 C 87.265625 -74.289062 86.535156 -85.070312 85.078125 -93.125 C 83.617188 -101.1875 81.929688 -107.25 80.015625 -111.3125 C 78.097656 -115.382812 76.410156 -118.070312 74.953125 -119.375 C 73.492188 -120.6875 72.765625 -121.34375 72.765625 -121.34375 C 72.765625 -121.34375 74.335938 -120.648438 77.484375 -119.265625 C 80.628906 -117.890625 84.503906 -115.703125 89.109375 -112.703125 C 93.710938 -109.710938 98.316406 -105.835938 102.921875 -101.078125 C 107.523438 -96.316406 111.398438 -90.5625 114.546875 -83.8125 C 117.691406 -77.0625 119.265625 -69.15625 119.265625 -60.09375 C 119.265625 -51.039062 117.691406 -43.175781 114.546875 -36.5 C 111.398438 -29.820312 107.523438 -24.175781 102.921875 -19.5625 C 98.316406 -14.957031 93.710938 -11.234375 89.109375 -8.390625 C 84.503906 -5.554688 80.628906 -3.488281 77.484375 -2.1875 C 74.335938 -0.882812 72.765625 -0.234375 72.765625 -0.234375 Z M 72.765625 -0.234375 "/></g></g></g><g fill="#00ff41" fill-opacity="1"><g transform="translate(179.850874, 253.120105)"><g><path d="M 66.3125 0 L 32.703125 -82.203125 L 48.125 -124.109375 L 99.921875 0 Z M 66.3125 0 "/></g></g></g></svg>